:FULLY-SPECIFIED
:FORCE-ALL-JOINTS-BE-3DOF
:DEGREES
65
root 9.07853 16.3022 -27.3382 5.37009 -11.5869 0.417065
lfemur -26.8408 7.51909 -23.6714
ltibia 32.2563 -0 0
lfoot -10.052 7.72486 -0.000895961
ltoes -3.89347 0 0
rfemur -4.32406 -0.720862 15.985
rtibia 56.6598 -0 0
rfoot 6.39136 -10.1042 0.0252956
rtoes -2.72725 0 0
lowerback -5.14236 0.382547 -2.11155
upperback -2.1526 0.576764 2.56791
thorax 0.620032 0.306727 3.86429
lowerneck -22.488 -4.12831 -11.7485
upperneck 17.6696 -4.76443 12.81
head 9.93322 -1.5579 5.80621
lclavicle -4.4147e-15 4.77083e-15 0
lhumerus -38.7231 -6.07158 88.6065
lradius 21.0864 -0 0
lwrist -3.5253 0 0
lhand 1.41917 -17.294 0.00111005
lfingers 7.12502 0 0
lthumb 26.9484 10.7981 -0.00103682
rclavicle -4.4147e-15 4.77083e-15 0
rhumerus -43.0311 13.3214 -90.8664
rradius 38.2797 -0 0
rwrist -19.7761 0 0
rhand -29.7273 -25.6812 -1.94244e-05
rfingers 7.12502 0 0
rthumb -3.05412 -55.6391 -2.09668e-05
66
root 9.09899 16.3281 -27.2193 5.31432 -11.4605 0.497943
lfemur -26.0158 7.30378 -23.8602
ltibia 31.6549 -0 0
lfoot -10.1356 7.87838 -0.000559975
ltoes -3.99671 0 0
rfemur -5.56239 -0.856552 16.1245
rtibia 58.1401 -0 0
rfoot 5.13308 -10.3921 0.0158078
rtoes -2.67216 0 0
lowerback -5.132 0.289988 -2.15236
upperback -2.08777 0.454653 2.57188
thorax 0.690438 0.243773 3.88542
lowerneck -22.5273 -4.10056 -11.6456
upperneck 17.6653 -4.72599 12.6856
head 9.92664 -1.54546 5.74792
lclavicle -1.04942e-14 1.07344e-14 0
lhumerus -38.1017 -6.52432 88.5977
lradius 21.2556 -0 0
lwrist -3.28699 0 0
lhand 0.963381 -17.3289 0.00069377
lfingers 7.12502 0 0
lthumb 26.5124 10.8321 -0.000648004
rclavicle -1.04942e-14 1.07344e-14 0
rhumerus -42.9086 13.1224 -90.6608
rradius 38.2516 -0 0
rwrist -19.819 0 0
rhand -29.7764 -25.6756 -1.21402e-05
rfingers 7.12502 0 0
rthumb -3.10154 -55.6327 -1.31042e-05
67
root 9.11944 16.354 -27.1003 5.25876 -11.3341 0.578659
lfemur -25.1905 7.09119 -24.0521
ltibia 31.0535 0 0
lfoot -10.2192 8.0319 0
ltoes -4.09995 0 0
rfemur -6.8011 -0.989197 16.2669
rtibia 59.6204 0 0
rfoot 3.87486 -10.6797 0
rtoes -2.61707 0 0
lowerback -5.12157 0.197437 -2.19318
upperback -2.02295 0.332538 2.57571
thorax 0.76082 0.180792 3.90648
lowerneck -22.5665 -4.07274 -11.5427
upperneck 17.6609 -4.68756 12.5612
head 9.92005 -1.53304 5.68962
lclavicle -1.65737e-14 1.66979e-14 0
lhumerus -37.4797 -6.97695 88.584
lradius 21.4248 0 0
lwrist -3.04867 0 0
lhand 0.507587 -17.3638 0
lfingers 7.12502 0 0
lthumb 26.0765 10.8662 0
rclavicle -1.65737e-14 1.66979e-14 0
rhumerus -42.7869 12.923 -90.4558
rradius 38.2235 0 0
rwrist -19.862 0 0
rhand -29.8255 -25.6699 0
rfingers 7.12502 0 0
rthumb -3.14896 -55.6264 0
68
root 9.13452 16.3658 -26.9917 5.26836 -11.0426 0.716797
lfemur -24.6254 6.79182 -24.2857
ltibia 30.6618 -0 0
lfoot -10.3921 8.08701 -0.000415777
ltoes -4.2156 0 0
rfemur -8.03863 -1.01796 16.4327
rtibia 60.293 -0 0
rfoot 2.34695 -10.702 0.00148935
rtoes -4.09744 0 0
lowerback -5.13591 0.0795749 -2.32461
upperback -2.03323 0.18198 2.57662
thorax 0.771692 0.105906 3.9734
lowerneck -22.5275 -4.04237 -11.5395
upperneck 17.7905 -4.66138 12.5585
head 9.95496 -1.52221 5.69668
lclavicle -1.99178e-14 1.45775e-14 0
lhumerus -36.8152 -7.4668 88.568
lradius 21.6574 -0 0
lwrist -2.84344 0 0
lhand 0.336461 -17.3173 -0.000347083
lfingers 7.12502 0 0
lthumb 25.9126 10.9362 -0.000500776
rclavicle -1.99178e-14 1.45775e-14 0
rhumerus -42.8742 12.9074 -90.3384
rradius 38.4073 -0 0
rwrist -20.0477 0 0
rhand -29.9101 -25.1527 -0.00190905
rfingers 7.12502 0 0
rthumb -3.23063 -55.1078 -0.00184822
69
root 9.1496 16.3776 -26.8831 5.27867 -10.7511 0.854849
lfemur -24.0594 6.49476 -24.5221
ltibia 30.27 -0 0
lfoot -10.565 8.14211 -0.000665244
ltoes -4.33125 0 0
rfemur -9.27626 -1.04314 16.5991
rtibia 60.9656 -0 0
rfoot 0.819047 -10.7243 0.00238338
rtoes -5.57781 0 0
lowerback -5.14998 -0.0383198 -2.45601
upperback -2.0435 0.0314213 2.57757
thorax 0.782477 0.0310072 4.0403
lowerneck -22.4885 -4.012 -11.5363
upperneck 17.9201 -4.63519 12.5558
head 9.98986 -1.51138 5.70374
lclavicle -2.3262e-14 1.24572e-14 0
lhumerus -36.1499 -7.95643 88.5462
lradius 21.89 -0 0
lwrist -2.6382 0 0
lhand 0.165335 -17.2708 -0.000555333
lfingers 7.12502 0 0
lthumb 25.7487 11.0062 -0.000801244
rclavicle -2.3262e-14 1.24572e-14 0
rhumerus -42.9615 12.892 -90.221
rradius 38.591 -0 0
rwrist -20.2333 0 0
rhand -29.9947 -24.6354 -0.00305455
rfingers 7.12502 0 0
rthumb -3.31231 -54.5893 -0.00295721
70
root 9.16468 16.3894 -26.7745 5.28968 -10.4597 0.992823
lfemur -23.4925 6.20003 -24.7613
ltibia 29.8783 -0 0
lfoot -10.7379 8.19722 -0.000748401
ltoes -4.4469 0 0
rfemur -10.514 -1.06472 16.7661
rtibia 61.6383 -0 0
rfoot -0.70886 -10.7467 0.00268146
rtoes -7.05818 0 0
lowerback -5.16378 -0.156247 -2.58739
upperback -2.05378 -0.119137 2.57853
thorax 0.793174 -0.043904 4.10719
lowerneck -22.4495 -3.98163 -11.5331
upperneck 18.0497 -4.60899 12.5532
head 10.0248 -1.50056 5.71081
lclavicle -2.66061e-14 1.03368e-14 0
lhumerus -35.4835 -8.44578 88.5186
lradius 22.1227 -0 0
lwrist -2.43297 0 0
lhand -0.0057915 -17.2244 -0.000624751
lfingers 7.12502 0 0
lthumb 25.5847 11.0762 -0.0009014
rclavicle -2.66061e-14 1.03368e-14 0
rhumerus -43.0488 12.8768 -90.1035
rradius 38.7748 -0 0
rwrist -20.419 0 0
rhand -30.0792 -24.1181 -0.00343639
rfingers 7.12502 0 0
rthumb -3.394 -54.0707 -0.00332688
